<svg xmlns="http://www.w3.org/2000/svg" width="628.86" height="618.589" viewBox="0 0 628.86 618.589">
  <path id="Path_1" data-name="Path 1" d="M825.744,175c-69.781,30.495-138.489,1.558-138.489,1.558s-3.905,1.729-11.026,4.859c-22.629,12.728-85.893,37.592-143.455,61.42-45.132,68.618-89.59,181.245-89.59,181.245s52.48,41.922,102.96,42.63c9.686-32.867,19.354-33.558,21.24-33.913s17.393,17.982,19.316,42.78,0,37,0,37l4.581,22.907L586.7,556.356v25.019s-20.625,142.073-24.847,176.276c12.754,30.393,290.742,58.26,390.864,3.688-17.242-106.789-22.134-153.754-22.134-153.754l-4.252-26.21,3.281-24.7s-3.281-.9-3.281-21.1.131-37.77,3.281-62.68,11.042-32.568,11.042-32.568,6.778-15.17,15.383,0S968,466.713,968,466.713s50.044-1.711,102.8-42.63c-28.427-50-26.544-66.14-26.544-66.14l-42.885-87.42-25.75-32S870.766,198.184,838,179.991C831.82,176.933,826.356,176.254,825.744,175Z" transform="translate(-442.583 -174.35)" fill="none" stroke="#707070" stroke-width="1"/>
</svg>
